<svg width="102" height="28" viewBox="0 0 102 28" fill="none" xmlns="http://www.w3.org/2000/svg">
<path d="M44.5047 8.91523C43.8398 8.33117 43.0658 7.88451 42.2275 7.60101C41.3891 7.31751 40.5029 7.20278 39.62 7.26342C37.3294 7.26342 34.3277 8.28229 34.3277 11.1842C34.3277 14.0861 37.1556 14.9012 39.5202 15.0775C41.2992 15.1765 42.0095 15.5349 42.0095 16.3991C42.0095 17.2633 40.9083 17.9245 39.7464 17.902C38.1415 17.8506 36.6077 17.2277 35.4214 16.1454L33.8936 18.3478C34.6377 19.1238 35.5432 19.7268 36.5461 20.1142C37.549 20.5015 38.6248 20.6637 39.6973 20.5893C43.2879 20.5893 45.0936 18.6764 45.0936 16.4648C45.0936 13.1329 42.0869 12.6098 39.7248 12.4451C38.1171 12.3403 37.3793 11.8945 37.3793 11.0686C37.3793 10.2427 38.1944 9.82098 39.6699 9.82098C40.2348 9.78809 40.8007 9.86857 41.334 10.0577C41.8674 10.2468 42.3575 10.5407 42.7756 10.9222L44.5047 8.89028V8.91523ZM47.1538 7.61524V14.2233C47.1538 18.1166 49.3562 20.3781 52.3462 20.3781C53.147 20.3871 53.9403 20.2236 54.6723 19.8987C55.4042 19.5738 56.0576 19.095 56.588 18.495L56.7918 20.1469H59.5523V7.61524H56.4749V14.0137C56.5046 14.4575 56.4445 14.9027 56.298 15.3227C56.1516 15.7426 55.9218 16.1287 55.6226 16.4578C55.3234 16.7868 54.9608 17.0521 54.5566 17.2377C54.1524 17.4232 53.7149 17.5253 53.2703 17.5377C51.3648 17.5377 50.242 16.0897 50.242 14.1784V7.61524H47.1538ZM70.9203 7.91799C70.0557 7.39676 69.0537 7.14916 68.0459 7.2077C67.2015 7.17345 66.3591 7.31454 65.572 7.62205C64.7848 7.92956 64.0699 8.39683 63.4724 8.9944C62.8748 9.59197 62.4075 10.3069 62.1 11.094C61.7925 11.8812 61.6514 12.7235 61.6857 13.5679C61.6857 17.4828 64.1251 19.8782 68.0459 19.8782C69.5987 19.8782 71.2289 20.6708 71.2289 22.4C71.2289 24.1292 69.8299 25.0981 68.0459 25.0981C66.2618 25.0981 64.7423 24.0302 64.7423 22.4H61.6749C61.6749 25.781 64.3954 28 68.0351 28C71.6747 28 74.3404 25.8799 74.3404 22.4C74.3919 21.5245 74.1693 20.6546 73.7034 19.9115C73.2376 19.1684 72.5517 18.589 71.7412 18.2538C73.8064 17.3123 74.3903 15.1207 74.3903 13.5679C74.4376 12.2078 73.965 10.8808 73.0687 9.85675L74.4676 8.07269L72.1771 6.34354L70.9295 7.91882L70.9203 7.91799ZM68.0459 10.0322C68.497 10.0348 68.9427 10.1302 69.3553 10.3124C69.768 10.4947 70.1387 10.7598 70.4445 11.0914C70.7503 11.4231 70.9846 11.814 71.1329 12.2401C71.2811 12.6661 71.3401 13.1181 71.3062 13.5679C71.3359 14.0164 71.2734 14.4662 71.1224 14.8896C70.9715 15.3129 70.7354 15.7009 70.4286 16.0294C70.1219 16.3579 69.7511 16.6201 69.3391 16.7998C68.927 16.9794 68.4826 17.0726 68.0331 17.0738C67.5836 17.0749 67.1387 16.9839 66.7258 16.8064C66.3129 16.6288 65.9407 16.3685 65.6323 16.0416C65.3239 15.7146 65.0859 15.3279 64.9328 14.9053C64.7797 14.4827 64.7148 14.0332 64.7423 13.5845C64.7069 13.1308 64.7664 12.6748 64.9168 12.2453C65.0672 11.8158 65.3054 11.4223 65.6161 11.0898C65.9267 10.7572 66.3032 10.493 66.7215 10.3138C67.1398 10.1346 67.5908 10.0444 68.0459 10.0489V10.0322ZM86.2182 9.34357C85.7798 8.69224 85.1827 8.16335 84.4831 7.80682C83.7836 7.45029 83.0048 7.27788 82.2201 7.30584C78.5606 7.30584 75.6836 9.54734 75.6836 13.8765C75.6836 18.2056 78.4366 20.5669 82.1428 20.5394C83.5467 20.5394 85.5021 19.8017 86.2182 18.337L86.3721 20.1668H89.2965V7.60776H86.3172L86.2182 9.35438V9.34357ZM82.5013 10.0813C87.386 10.0813 87.386 17.6916 82.5013 17.6916C81.9998 17.7095 81.5002 17.6223 81.0345 17.4355C80.5689 17.2487 80.1474 16.9666 79.7973 16.6072C79.4472 16.2477 79.1762 15.819 79.0018 15.3486C78.8273 14.8782 78.7532 14.3764 78.7843 13.8756C78.7534 13.3759 78.8277 12.8752 79.0025 12.4061C79.1773 11.9369 79.4487 11.5096 79.7991 11.152C80.1494 10.7943 80.571 10.5142 81.0365 10.3297C81.502 10.1453 82.001 10.0607 82.5013 10.0813ZM91.9181 7.61441V20.1602H95.0237V13.5521C94.9793 13.1279 95.0292 12.6992 95.1699 12.2966C95.3106 11.894 95.5386 11.5275 95.8376 11.2233C96.1365 10.9191 96.499 10.6848 96.8991 10.5371C97.2992 10.3895 97.727 10.3321 98.1518 10.3691C98.5607 10.3509 98.9692 10.4135 99.3538 10.5533C99.7384 10.6932 100.092 10.9076 100.393 11.1842L101.792 8.48606C100.906 7.69807 99.7569 7.26998 98.571 7.28588C97.8736 7.21582 97.1706 7.34596 96.5444 7.66104C95.9182 7.97612 95.3948 8.4631 95.0354 9.06494L94.8041 7.61691L91.9181 7.61441Z" fill="#22303E"/>
<g clip-path="url(#clip0)">
<rect width="27.2964" height="27.2973" rx="8" fill="url(#paint0_linear)"/>
<path fill-rule="evenodd" clip-rule="evenodd" d="M13.6451 4.05304L23.1268 8.23828L13.651 12.4177L4.16846 8.23828L13.6451 4.05304Z" fill="white"/>
<path fill-rule="evenodd" clip-rule="evenodd" d="M13.6451 12.4285V27.2964H4.16846V8.25989L13.6451 12.4285ZM11.9444 19.9065V13.6894H11.9419L5.87029 11.0079V17.225L6.9166 17.6875L6.89497 19.3118L8.66239 18.4585L11.9444 19.9065Z" fill="white"/>
<path fill-rule="evenodd" clip-rule="evenodd" d="M15.3528 13.6894V19.9065L18.6348 18.4585L20.4022 19.3118L20.3747 17.6875L21.4269 17.225V11.0079L15.3553 13.6894H15.3528Z" fill="white"/>
</g>
<defs>
<linearGradient id="paint0_linear" x1="0" y1="0" x2="27.125" y2="27.125" gradientUnits="userSpaceOnUse">
<stop stop-color="#9DE0FB"/>
<stop offset="1" stop-color="#3FC1F8"/>
</linearGradient>
<clipPath id="clip0">
<rect width="27.2964" height="27.2973" rx="8" fill="white"/>
</clipPath>
</defs>
</svg>
