<svg width="24" height="25" viewBox="0 0 24 25" fill="none" xmlns="http://www.w3.org/2000/svg">
<path d="M9.5 11.5C10.0523 11.5 10.5 11.0523 10.5 10.5C10.5 9.94772 10.0523 9.5 9.5 9.5C8.94772 9.5 8.5 9.94772 8.5 10.5C8.5 11.0523 8.94772 11.5 9.5 11.5Z" fill="url(#paint0_linear)"/>
<path d="M11.5 17.71C11.5 15.83 14.48 15.01 16 15.01C16.88 15.01 18.24 15.28 19.24 15.88C19.72 14.86 19.99 13.72 19.99 12.51C19.99 8.10001 16.4 4.51001 11.99 4.51001C7.57999 4.51001 3.98999 8.10001 3.98999 12.51C3.98999 13.74 4.27999 14.9 4.76999 15.94C6.10999 14.96 8.19999 14.51 9.49999 14.51C9.93999 14.51 10.47 14.56 11.03 14.67C10.4 15.24 9.96999 15.89 9.72999 16.53C9.64999 16.53 9.57999 16.52 9.49999 16.52C8.11999 16.52 6.51999 17.09 5.83999 17.63C7.20999 19.28 9.22999 20.36 11.5 20.49V17.71ZM16 9.50001C17.11 9.50001 18 10.39 18 11.5C18 12.61 17.11 13.5 16 13.5C14.89 13.5 14 12.61 14 11.5C13.99 10.39 14.89 9.50001 16 9.50001ZM9.49999 13.5C7.84999 13.5 6.49999 12.15 6.49999 10.5C6.49999 8.85001 7.84999 7.50001 9.49999 7.50001C11.15 7.50001 12.5 8.85001 12.5 10.5C12.5 12.15 11.15 13.5 9.49999 13.5Z" fill="url(#paint1_linear)"/>
<path d="M12.5 10.5C12.5 8.85001 11.15 7.50001 9.49999 7.50001C7.84999 7.50001 6.49999 8.85001 6.49999 10.5C6.49999 12.15 7.84999 13.5 9.49999 13.5C11.15 13.5 12.5 12.15 12.5 10.5ZM9.49999 11.5C8.94999 11.5 8.49999 11.05 8.49999 10.5C8.49999 9.95001 8.94999 9.50001 9.49999 9.50001C10.05 9.50001 10.5 9.95001 10.5 10.5C10.5 11.05 10.05 11.5 9.49999 11.5ZM16 13.5C17.11 13.5 18 12.61 18 11.5C18 10.39 17.11 9.50001 16 9.50001C14.89 9.50001 13.99 10.39 14 11.5C14 12.61 14.89 13.5 16 13.5ZM11.99 2.51001C6.46999 2.51001 1.98999 6.99001 1.98999 12.51C1.98999 18.03 6.46999 22.51 11.99 22.51C17.51 22.51 21.99 18.03 21.99 12.51C21.99 6.99001 17.51 2.51001 11.99 2.51001ZM5.83999 17.62C6.51999 17.08 8.10999 16.51 9.49999 16.51C9.56999 16.51 9.64999 16.52 9.72999 16.52C9.96999 15.88 10.4 15.23 11.03 14.66C10.47 14.56 9.93999 14.5 9.49999 14.5C8.19999 14.5 6.10999 14.95 4.76999 15.93C4.26999 14.89 3.98999 13.73 3.98999 12.5C3.98999 8.09001 7.57999 4.50001 11.99 4.50001C16.4 4.50001 19.99 8.09001 19.99 12.5C19.99 13.7 19.72 14.84 19.24 15.87C18.24 15.28 16.88 15 16 15C14.48 15 11.5 15.81 11.5 17.7V20.48C9.22999 20.35 7.20999 19.27 5.83999 17.62Z" fill="#323232"/>
<defs>
<linearGradient id="paint0_linear" x1="8.5" y1="9.5" x2="10.5" y2="11.5" gradientUnits="userSpaceOnUse">
<stop stop-color="#F4FBFD"/>
<stop offset="1" stop-color="#D0EDFA"/>
</linearGradient>
<linearGradient id="paint1_linear" x1="3.98999" y1="4.51001" x2="19.97" y2="20.51" gradientUnits="userSpaceOnUse">
<stop stop-color="#F4FBFD"/>
<stop offset="1" stop-color="#D0EDFA"/>
</linearGradient>
</defs>
</svg>
