<svg width="24" height="25" viewBox="0 0 24 25" fill="none" xmlns="http://www.w3.org/2000/svg">
<path d="M15 11.5V4.5H4V12.67L4.59 12.09L5.17 11.5H6H15Z" fill="url(#paint0_linear)"/>
<path d="M21 6.5H19V15.5H6V17.5C6 18.05 6.45 18.5 7 18.5H18L22 22.5V7.5C22 6.95 21.55 6.5 21 6.5ZM16 13.5C16.55 13.5 17 13.05 17 12.5V3.5C17 2.95 16.55 2.5 16 2.5H3C2.45 2.5 2 2.95 2 3.5V17.5L6 13.5H16ZM4.59 12.09L4 12.67V4.5H15V11.5H5.17L4.59 12.09Z" fill="#22303E"/>
<defs>
<linearGradient id="paint0_linear" x1="4" y1="4.5" x2="11.8215" y2="15.0308" gradientUnits="userSpaceOnUse">
<stop stop-color="#F4FBFD"/>
<stop offset="1" stop-color="#D0EDFA"/>
</linearGradient>
</defs>
</svg>
